<?xml version="1.0" encoding="UTF-8"?>
<svg height="80" version="1.1" viewBox="0 0 100 80" width="100" xmlns="http://www.w3.org/2000/svg" xmlns:xlink="http://www.w3.org/1999/xlink">
    <title>1bd23f8e-88d2-4fb9-8565-6a78c9c5ea79@2.00x</title>
    <g fill="none" fill-rule="evenodd" id="Symbols" stroke="none" stroke-width="1">
        <g fill="#FFFFFF" id="Logo">
            <path d="M94.1484765,77.3408262 L94.7534271,79.1678026 L94.7594894,79.1678026 L95.3372512,77.3408262 L96.1268284,77.3408262 L96.1268284,80 L95.5975655,80 L95.5975655,78.1120325 L95.5915031,78.1120325 L94.956057,80 L94.5236083,80 L93.8883459,78.1333426 L93.8820999,78.1333426 L93.8820999,80 L93.349714,80 L93.349714,77.3408262 L94.1484765,77.3408262 Z M93.0472938,77.3408262 L93.0472938,77.8338985 L92.2696577,77.8338985 L92.2696577,80 L91.7010813,80 L91.7010813,77.8338985 L90.9328143,77.8338985 L90.9328143,77.3408262 L93.0472938,77.3408262 Z M78.587175,56.6699061 C82.0570524,57.8406774 85.2001132,59.2291427 88.7515569,60.3514151 C89.4231935,60.6752924 89.0875589,59.8280309 89.2326883,59.5770857 C89.4081294,59.1293892 89.8405782,59.0355144 90.1977066,58.860257 C91.3064931,58.4588633 92.8729154,58.597627 93.6840957,59.5818846 L93.7947099,59.7282774 L93.8218987,70.8549221 L98.1175438,71.526375 L98.1175438,73.8407288 L23.7170749,65.3671956 C21.1609613,64.8983727 17.6818985,65.0405627 15.6217966,66.3836522 C13.9548299,67.4818588 12.7781799,69.3663359 13.1805005,71.4538103 C13.4496328,72.9662786 14.8019076,74.2066752 16.129933,74.7996848 C16.8289421,75.1535064 17.2130756,75.3502577 18.1387804,75.6980171 C18.6157508,76.0285629 17.684114,75.9986672 17.273327,76.1246368 L17.2130756,76.1458972 L-7.81597009e-14,78.6779451 L-7.81597009e-14,76.9656025 L4.83115394,76.2697165 L4.83115394,63.8484813 C4.87652983,62.9047731 5.82648409,62.5083312 6.85800471,62.5083312 C8.0707625,62.5083312 8.96121189,62.9589661 9.04722493,63.6239758 L9.05405058,63.7307244 L9.05405058,75.6497018 L13.4496328,75.0023147 C11.8796639,73.4170981 10.9390787,71.2026814 11.474404,68.8914506 C12.0306837,66.4645489 14.419781,64.4994216 16.7010046,63.996883 L16.9286956,63.9515415 L33.0799387,61.98807 L76.793266,56.7727826 L78.587175,56.6699061 Z M77.8822872,59.3048304 L32.8681233,64.1512321 L89.1840056,70.4101649 L89.1840056,63.1345919 L77.8822872,59.3048304 Z M86.2618905,0 L91.2837334,52.4286202 C91.3592374,52.9459421 91.3102706,53.6477068 90.6361626,53.8172693 C90.1476122,54.0043123 89.8187248,53.7015658 89.6376521,53.3779042 L89.5954565,53.2968244 L88.10834,46.8279133 L78.0668587,42.8317124 L74.1121758,43.4967355 C75.0397344,43.6049562 75.8774127,43.9462281 76.5952597,44.5172385 L76.806989,44.6954304 L75.3626764,47.2177418 C74.4421154,46.4296343 73.1311749,46.5016479 72.1747908,46.6539418 C71.2569855,46.7999897 70.9035312,47.3160256 70.9026127,47.8959919 C70.9015104,48.5961032 71.5588178,48.735905 72.7536549,48.8360259 C74.5482987,49.030389 76.9861043,49.20087 76.9807768,52.2860628 C76.9791067,53.3333656 76.7456001,54.2721137 76.2965437,55.0539991 L76.1553766,55.2838105 L68.1989815,56.2739969 C68.0986769,56.187899 68.0018016,56.0979637 67.908301,56.0042999 L67.7705744,55.8610212 L69.0873936,53.3460582 C69.8466589,54.1982798 71.1476792,54.4896407 72.6145879,54.2958287 C73.5739113,54.1694376 74.1634303,53.5857972 74.1643489,52.9385938 C74.1658185,52.1695919 73.4636864,51.96439 72.3112859,51.8240371 C70.544382,51.6335319 68.1826315,51.5306554 68.187959,48.4010053 C68.1885102,48.0908602 68.2170653,47.7819551 68.2730044,47.4785527 L68.3380485,47.1771423 L63.1591352,45.6148892 C65.2122563,46.249233 66.6172553,48.3221945 66.6122952,51.3037759 C66.6088144,53.3496066 65.9415298,55.1606493 64.8588017,56.4947918 L64.6745428,56.7126917 L57.0975049,57.6554813 C55.9857038,56.6327787 55.3078212,54.9970423 55.3113116,52.9492488 C55.3142265,51.2697899 55.7748274,49.733558 56.5562994,48.4920056 L56.7286191,48.2305242 L53.4000132,46.979105 L53.369334,46.9842489 L53.3502283,58.1217323 L50.9508177,58.4204416 L50.9649632,50.0982838 L46.1521801,48.6460718 C47.8492749,49.22861 48.9555647,51.041992 48.9506046,53.8571339 C48.947308,55.8414767 48.3924485,57.4936691 47.4717375,58.6711776 L47.3054991,58.8740167 L40.5000349,59.7210945 L40.5163849,50.2237564 L38.5339915,49.4788203 L38.5135999,49.482127 L38.5023937,56.0825731 C38.5000196,57.4754757 38.2304449,58.7974692 37.6680947,59.8375961 L37.5213928,60.0916336 L31.8934971,60.7921123 C31.3100929,59.9692053 31.014979,58.7929049 30.9778557,57.4804586 L30.9738547,57.1752685 L30.9834075,51.6135077 L29.3840453,51.0171914 L29.3825757,51.0175588 L29.6561169,53.6436652 L27.5054469,53.9838925 L27.4929548,61.339746 L25.5383013,61.5829754 L25.5506097,54.2934405 L23.4612982,54.6237476 L23.5954051,53.3047239 L21.1574157,52.5689732 C21.6386849,52.7160544 22.0815561,52.9833927 22.4716304,53.3734493 L22.6355306,53.548137 L21.6822696,55.5613934 C21.0743797,54.8989422 20.2072778,54.9257636 19.5736688,55.0266193 C18.9648603,55.1234334 18.7300815,55.5356743 18.7293466,56.008355 C18.7284281,56.5787685 19.1647347,56.7077315 19.9565163,56.8166704 C21.1440051,57.0158099 22.7523689,57.2096219 22.7481436,59.7135624 C22.7468373,60.4859527 22.6192486,61.1817026 22.3737643,61.772298 L22.2761977,61.9887865 L16.8261314,62.6672202 L16.7331521,62.5550894 L16.7331521,62.5550894 L16.6433419,62.4386874 L17.5210989,60.4123878 C18.0259286,61.1227868 18.8902749,61.3864078 19.8631926,61.2579959 C20.4982713,61.174225 20.8884672,60.7114645 20.889202,60.1849573 C20.8903043,59.5599825 20.4258903,59.3779278 19.6629509,59.2392283 C18.4905262,59.0465185 16.9190876,58.9114931 16.9234966,56.3566655 C16.924803,55.5885209 17.09855,54.8364883 17.4350608,54.200174 L17.568863,53.967175 L15.803245,53.3006823 L15.7760562,51.0217841 L78.0668587,40.0084873 L87.3938994,43.7203082 L84.210974,29.8762543 L78.3332354,27.5819246 L73.876111,36.2149164 L73.8702323,39.5980836 L71.2160186,40.0711318 L71.2217136,36.7213994 L67.9796341,31.6117441 L65.0296505,30.7213112 L65.0178932,30.7229646 C65.4349104,30.8330057 65.7839557,31.0213065 66.0602526,31.2937455 C66.3516135,31.5814323 66.571512,31.9387444 66.7195807,32.3656819 C66.8676494,32.7931705 66.9409489,33.5142245 66.9400303,34.0377924 C66.938377,34.9761731 66.7372167,36.0212881 66.3382028,36.6813511 C66.0236947,37.2017755 65.592194,37.7431019 65.044862,38.1212128 L64.8341851,38.2549941 L66.6167042,40.890837 L63.6099548,41.4265296 L61.9835875,39.0001139 L61.9788111,41.7173395 L59.4579694,42.1665056 L59.4746869,32.5449809 L57.8108432,31.9196388 L57.7985347,38.988724 C57.7963302,40.3048084 57.6415068,41.450116 57.188417,42.3675728 L57.0688464,42.5921571 L50.5437207,43.7548453 C50.0597681,43.0658483 49.8789956,42.049119 49.8574052,40.8165905 L49.855183,40.5283811 L49.8660217,34.3460545 L48.5936599,33.8676788 L48.7812258,36.4829464 L46.3061274,36.9877761 L46.2929004,44.5122735 L44.0529483,44.9114711 L44.0661753,37.4448417 L41.6270837,37.942323 L41.7621091,36.0554578 L40.5711299,35.607945 L40.5536777,45.5349762 L37.7594784,46.0330087 L33.9811552,41.7222996 L33.9723372,46.707952 L31.8326897,47.0891462 L31.8479375,38.396633 L30.1545168,37.7602684 L30.5511425,40.1284487 L26.0813422,41.0412939 L26.0782192,42.8690051 L29.7349277,42.1431747 L29.7305187,44.5787758 L26.0738102,45.2770501 L26.0705035,47.1628131 L30.5915582,46.326023 L30.4254862,47.3399076 L24.0304257,48.4794486 L24.0443875,40.5153378 L21.6381797,39.8045714 C22.1578667,39.969656 22.6084939,40.2502155 22.9617552,40.5687157 L23.1071091,40.7073127 L22.12372,42.8671681 C21.5959268,42.2432956 20.8493374,42.1806511 20.2004806,42.3129209 C19.0050924,42.5568852 18.1304584,43.8749904 18.1275191,45.5379155 C18.1245798,47.2012081 19.0491823,48.1193808 20.2453053,47.8967267 C20.8966728,47.7754794 21.5509732,47.3147817 21.9999157,46.7657997 L22.1171065,46.6140772 L23.093331,48.3918198 L22.9848055,48.5388781 L22.9848055,48.5388781 L22.8710443,48.6859364 L17.3598032,49.6680396 C16.6051306,48.8496203 16.1359403,47.5495185 16.1388796,45.9073524 C16.1418074,44.2699971 16.5858499,42.7957186 17.3129758,41.6896242 L17.4621286,41.4733752 L15.6943062,40.8061476 L15.6943062,38.6944237 L78.6536222,24.4673385 L83.4182738,26.4548758 L81.6728638,18.9524233 L77.3469069,17.1131384 L77.3469069,23.3480055 L75.1053014,23.795702 L75.1053014,19.5000569 C75.0812357,18.7709198 75.425872,17.6848378 74.5697925,17.8845285 C74.2431879,17.8845285 73.7024471,18.2661542 73.5830431,18.6150045 L73.5623376,18.7012944 L73.5623376,24.216026 L71.0727263,24.7607203 L71.0727263,14.8564689 L61.0020355,10.4851362 L60.3274596,10.3337608 C61.2199132,11.6981603 61.7732418,13.219814 62.0879337,14.8290964 C62.6801928,20.4458485 59.9168067,25.0597256 55.4964773,28.25996 L55.2058632,28.4666625 L46.5418248,30.5508302 C43.6616502,30.8262085 40.908969,29.7551907 38.9486205,27.4924588 C36.7279133,24.7731345 36.4788936,20.6259173 37.4559821,17.2074763 L37.5511535,16.8891983 L35.6179938,15.9515525 C38.3523834,22.8172814 29.7808727,28.0053181 28.6673985,30.534003 L28.6207384,30.6505836 L36.1020645,29.0321158 L36.1020645,32.9588751 L17.7455901,37.284832 L17.7455901,34.7498448 L27.5319009,23.589949 C28.9778669,21.9564171 30.8171517,20.5679518 30.2546377,18.9312969 C30.0428223,18.3595975 29.434565,18.0810961 28.9565567,17.9087779 C27.4319637,17.6153962 26.1704406,18.2596603 25.0874818,19.1974898 C24.3224235,19.9683777 23.9577606,20.9498653 23.870718,21.5176216 L23.8562705,21.6327235 L17.8965981,22.9971231 C18.1146595,21.4390953 18.3806688,20.3168229 18.9069923,19.0795493 C20.5498933,15.5249825 24.1467129,12.8145541 27.8190366,12.3001716 C31.830669,11.6224726 34.5622237,14.336024 38.0592899,15.5521712 C39.6503852,12.7175562 42.3367479,9.73781189 45.1320493,8.1950318 C48.7086152,5.97747168 53.8948589,6.03586064 57.7747467,7.56425036 L58.1040412,7.69883639 L70.1108311,12.8900581 L71.145291,13.2651899 L71.145291,9.75912202 L73.5382719,8.66991707 L80.0119594,11.8010368 L77.3257805,0.0786270396 L86.2618905,0 Z M5.09427896,56.4521385 C6.85805982,56.6698326 8.45521749,57.0750925 10.1644371,57.4654721 C10.6271976,57.6137245 10.3400619,58.1885469 10.2098129,58.5636787 C9.77736423,59.6286342 8.72141044,60.3513416 7.62632683,60.3728355 C6.49505274,60.4755283 5.50284564,60.0520812 4.94896591,58.7330575 C4.56189307,57.7649162 4.44707555,56.3038862 5.09427896,56.4521385 Z M33.0668403,50.4076481 L33.0563605,56.5728898 C33.0539808,57.9405962 33.556606,59.1622546 34.6823688,59.0123489 C35.7574282,58.8693122 36.2786618,57.6050092 36.324205,56.2821483 L36.3274743,56.101495 L36.3350063,51.6362875 L33.0668403,50.4076481 Z M44.3100772,51.3292898 L44.1460883,51.3504378 L42.7247392,51.5754801 L42.7137167,57.972194 L44.1220226,57.7848118 C45.6653538,57.5794262 46.6377204,56.0032112 46.6408526,54.1936871 C46.6440365,52.3757883 45.8164614,51.1802374 44.3100772,51.3292898 Z M93.6494153,54.6400057 C93.942797,55.9529671 93.0018444,57.4202432 91.6710634,57.7922519 C89.786219,58.1885102 88.5550077,57.1689306 88.1010651,55.7049612 C87.9531802,55.2602041 88.146441,55.1301388 88.6275724,55.036264 C90.0766614,54.8156306 91.5711262,54.4917533 93.0229709,54.1862469 C93.7186732,54.0651833 93.676604,54.2860003 93.6494153,54.6400057 Z M19.3216581,0.078590298 L9.05403221,54.9880039 C8.88483711,55.5354538 8.23744999,55.8045861 7.72912985,55.6807669 C7.23899681,55.4840156 7.00311569,55.1573827 7.00311569,54.4646197 L9.42034603,0.078590298 L19.3216581,0.078590298 Z M60.8581921,48.6444184 C59.1339085,48.9175922 58.0401108,50.4721297 58.0364283,52.5524395 C58.0329462,54.614011 59.1219674,55.8694718 60.8460674,55.6405716 C62.5767808,55.4109365 63.7078712,53.8310474 63.7115552,51.7261207 C63.7154032,49.6019047 62.5889055,48.3699586 60.8581921,48.6444184 Z M33.6122695,37.023048 L33.5711189,37.0316823 L38.3451396,42.7580455 L38.3521205,38.8046485 L33.6122695,37.023048 Z M52.1860705,33.1190685 L52.1744782,39.7432129 C52.1721087,41.1316782 52.3964162,42.091369 53.7854327,41.8334429 C55.1127003,41.5871441 55.318837,40.6207569 55.3358127,39.3074574 L55.3370308,39.1342208 L55.3454813,34.306741 L52.1860705,33.1190685 Z M62.8993452,33.6034228 L62.7235635,33.6385949 L61.9925892,33.7877658 L61.9879965,36.3859485 L62.7189708,36.2421051 C63.5337159,36.0819117 63.7651881,35.9889555 64.022563,35.6858372 C64.2262952,35.4459145 64.4188213,35.0469007 64.4195604,34.5595232 C64.4204746,34.0719621 64.2753453,33.8573911 64.0705108,33.6839707 C63.8186895,33.4706433 63.5668682,33.4731739 62.8993452,33.6034228 Z M69.818919,29.3785892 L69.8044061,29.3815285 L72.5302659,33.6407994 L73.9394902,30.9272479 L69.818919,29.3785892 Z M67.0401512,15.7728965 L67.0401512,18.1568756 L68.9973766,17.6606802 L68.9973766,19.8207193 L67.0401512,20.2502287 L67.0401512,25.7348321 L64.7985458,26.2519703 L64.7985458,16.2933413 L67.0401512,15.7728965 Z M45.4011816,14.4027101 C43.4682057,16.2206848 42.2430568,18.6529792 42.793446,21.3847177 C43.201829,23.2480683 45.1621775,24.6427797 46.8502706,24.963534 C49.984146,25.3597922 52.8852633,24.0468309 54.8909877,21.3847177 C56.1495714,19.6483093 56.8485805,16.964886 55.7652542,14.9018448 C54.963736,13.4376917 53.6597764,12.3426081 52.0898075,12.0703528 C49.5004427,11.6739109 47.2860261,12.7660552 45.4011816,14.4027101 Z M73.6832175,10.1100044 L73.6832175,16.196619 C74.1099713,15.5521712 74.6239864,15.346602 75.2713735,15.346602 C75.8092706,15.3250469 76.5358654,15.5425572 77.183691,15.7992747 L77.4224109,15.8969912 L81.3548651,17.6365226 L80.3718434,13.3166281 L73.6832175,10.1100044 Z" id="Logo---20th-Century-Studios"/>
        </g>
    </g>
</svg>